<svg width="24" height="24" viewBox="0 0 24 24" fill="none" xmlns="http://www.w3.org/2000/svg">
<g clip-path="url(#clip0_2743_38)">
<path d="M22.136 5.23801C22.0726 4.62308 21.783 4.05363 21.3235 3.64011C20.8639 3.22659 20.2672 2.99848 19.649 3.00001H18.576C18.5383 2.99992 18.501 3.00837 18.467 3.02473C18.4331 3.04108 18.4032 3.06492 18.3797 3.09446C18.3563 3.12399 18.3398 3.15845 18.3315 3.19526C18.3232 3.23207 18.3234 3.27028 18.332 3.30701C18.443 3.78 18.4994 4.26417 18.5 4.75001C18.4999 4.78288 18.5063 4.81544 18.5188 4.84583C18.5313 4.87623 18.5497 4.90384 18.573 4.92708C18.5962 4.95032 18.6238 4.96873 18.6542 4.98125C18.6846 4.99376 18.7172 5.00014 18.75 5.00001H19.65C19.7739 4.99931 19.8937 5.04465 19.9861 5.12724C20.0785 5.20983 20.1369 5.32379 20.15 5.44701L20.465 8.44701C20.4723 8.5169 20.4648 8.58755 20.443 8.65435C20.4212 8.72115 20.3855 8.7826 20.3383 8.83468C20.2911 8.88677 20.2335 8.92832 20.1692 8.95664C20.1049 8.98495 20.0353 8.99939 19.965 8.99901H17.225C17.1817 8.99906 17.1391 9.01033 17.1015 9.0317C17.0638 9.05308 17.0323 9.08385 17.01 9.12101C16.3182 10.2524 15.5313 11.323 14.658 12.321C14.6151 12.3704 14.5935 12.4347 14.598 12.5L14.779 15.47C14.7833 15.5382 14.7735 15.6066 14.7502 15.6709C14.727 15.7352 14.6909 15.794 14.644 15.8438C14.5971 15.8935 14.5406 15.9332 14.4778 15.9602C14.415 15.9873 14.3474 16.0011 14.279 16.001H9.72003C9.65167 16.0011 9.58402 15.9873 9.52124 15.9602C9.45847 15.9332 9.4019 15.8935 9.35505 15.8438C9.30819 15.794 9.27203 15.7352 9.24881 15.6709C9.22558 15.6066 9.21579 15.5382 9.22003 15.47L9.40003 12.5C9.40413 12.4346 9.3822 12.3703 9.33903 12.321C8.46572 11.323 7.67889 10.2524 6.98703 9.12101C6.96498 9.0844 6.93391 9.05406 6.8968 9.03287C6.85968 9.01169 6.81776 9.00038 6.77503 9.00001H4.03503C3.96475 9.00039 3.89519 8.98595 3.83087 8.95764C3.76655 8.92932 3.70892 8.88777 3.66174 8.83568C3.61456 8.7836 3.57889 8.72215 3.55706 8.65535C3.53522 8.58855 3.52772 8.5179 3.53503 8.44801L3.85103 5.44801C3.86391 5.32478 3.92209 5.21072 4.01429 5.12795C4.10648 5.04518 4.22613 4.99958 4.35003 5.00001H5.25003C5.31633 5.00001 5.37992 4.97367 5.4268 4.92678C5.47369 4.8799 5.50003 4.81631 5.50003 4.75001C5.50067 4.26417 5.55703 3.78 5.66803 3.30701C5.67643 3.27029 5.67646 3.23216 5.66812 3.19543C5.65978 3.1587 5.64328 3.12432 5.61985 3.09483C5.59642 3.06535 5.56665 3.04151 5.53275 3.0251C5.49885 3.00868 5.46169 3.00011 5.42403 3.00001H4.35003C3.73239 3.00007 3.13663 3.22876 2.6776 3.642C2.21857 4.05524 1.92876 4.62377 1.86403 5.23801L0.180027 21.238C0.143306 21.5865 0.180244 21.9387 0.288443 22.272C0.396642 22.6053 0.573686 22.9121 0.808092 23.1725C1.0425 23.4329 1.32903 23.6412 1.6491 23.7837C1.96918 23.9263 2.31564 24 2.66603 24H21.334C21.6844 24 22.0309 23.9263 22.351 23.7837C22.671 23.6412 22.9576 23.4329 23.192 23.1725C23.4264 22.9121 23.6034 22.6053 23.7116 22.272C23.8198 21.9387 23.8567 21.5865 23.82 21.238L22.136 5.23801ZM6.84803 21.531C6.84013 21.6582 6.78398 21.7775 6.69106 21.8647C6.59813 21.9519 6.47543 22.0003 6.34803 22H2.66603C2.59566 22.0004 2.526 21.9859 2.4616 21.9576C2.39721 21.9292 2.33952 21.8875 2.29233 21.8354C2.24514 21.7832 2.20949 21.7216 2.18773 21.6547C2.16596 21.5877 2.15857 21.517 2.16603 21.447L2.48203 18.447C2.49493 18.3236 2.55325 18.2094 2.64566 18.1266C2.73806 18.0438 2.85795 17.9983 2.98203 17.999H6.53203C6.60038 17.9989 6.66803 18.0128 6.73081 18.0398C6.79359 18.0668 6.85015 18.1065 6.89701 18.1562C6.94387 18.206 6.98002 18.2648 7.00325 18.3291C7.02647 18.3934 7.03626 18.4618 7.03203 18.53L6.84803 21.531ZM7.21403 15.531C7.20613 15.6582 7.14998 15.7775 7.05706 15.8647C6.96413 15.9519 6.84143 16.0003 6.71403 16H3.30003C3.22975 16.0004 3.16019 15.986 3.09587 15.9576C3.03155 15.9293 2.97392 15.8878 2.92674 15.8357C2.87956 15.7836 2.84389 15.7222 2.82206 15.6554C2.80022 15.5886 2.79272 15.5179 2.80003 15.448L3.22103 11.448C3.23393 11.3246 3.29225 11.2104 3.38466 11.1276C3.47706 11.0448 3.59695 10.9993 3.72103 11H6.96103C7.02938 10.9999 7.09703 11.0138 7.15981 11.0408C7.22259 11.0678 7.27915 11.1075 7.32601 11.1572C7.37287 11.207 7.40902 11.2658 7.43225 11.3301C7.45547 11.3944 7.46526 11.4628 7.46103 11.531L7.21403 15.531ZM15.014 21.843C14.9673 21.8926 14.9108 21.9321 14.8483 21.9591C14.7857 21.9861 14.7182 22 14.65 22H9.35403C9.28567 22.0001 9.21802 21.9863 9.15524 21.9592C9.09247 21.9322 9.0359 21.8925 8.98905 21.8428C8.94219 21.793 8.90603 21.7342 8.88281 21.6699C8.85958 21.6056 8.84979 21.5372 8.85403 21.469L9.03703 18.469C9.04493 18.3418 9.10107 18.2225 9.194 18.1353C9.28692 18.0482 9.40962 17.9998 9.53703 18H14.463C14.5904 17.9998 14.7131 18.0482 14.8061 18.1353C14.899 18.2225 14.9551 18.3418 14.963 18.469L15.146 21.469C15.1502 21.5373 15.1402 21.6058 15.1168 21.6701C15.0934 21.7345 15.0571 21.7933 15.01 21.843H15.014ZM16.79 15.531L16.546 11.531C16.5418 11.4628 16.5516 11.3944 16.5748 11.3301C16.598 11.2658 16.6342 11.207 16.681 11.1572C16.7279 11.1075 16.7845 11.0678 16.8472 11.0408C16.91 11.0138 16.9777 10.9999 17.046 11H20.286C20.4101 10.9993 20.53 11.0448 20.6224 11.1276C20.7148 11.2104 20.7731 11.3246 20.786 11.448L21.207 15.448C21.2143 15.5179 21.2068 15.5886 21.185 15.6554C21.1632 15.7222 21.1275 15.7836 21.0803 15.8357C21.0331 15.8878 20.9755 15.9293 20.9112 15.9576C20.8469 15.986 20.7773 16.0004 20.707 16H17.285C17.1578 16 17.0353 15.9515 16.9426 15.8643C16.8499 15.7772 16.7939 15.658 16.786 15.531H16.79ZM21.711 21.831C21.6638 21.8831 21.6062 21.9247 21.542 21.9533C21.4778 21.9819 21.4083 21.9968 21.338 21.997H17.651C17.5236 21.9973 17.4009 21.9489 17.308 21.8617C17.2151 21.7745 17.1589 21.6552 17.151 21.528L16.968 18.528C16.9638 18.4598 16.9736 18.3914 16.9968 18.3271C17.02 18.2628 17.0562 18.204 17.103 18.1542C17.1499 18.1045 17.2065 18.0648 17.2692 18.0378C17.332 18.0108 17.3997 17.9969 17.468 17.997H21.018C21.1421 17.9963 21.262 18.0418 21.3544 18.1246C21.4468 18.2074 21.5051 18.3216 21.518 18.445L21.834 21.445C21.8415 21.5151 21.834 21.5861 21.8121 21.6531C21.7903 21.7201 21.7544 21.7818 21.707 21.834L21.711 21.831Z" fill="#5626F4"/>
<path d="M12 13C12.0657 13.0001 12.1308 12.9873 12.1915 12.9622C12.2523 12.9372 12.3075 12.9004 12.354 12.854C12.543 12.664 17 8.171 17 5C17 3.67392 16.4732 2.40215 15.5355 1.46447C14.5979 0.526784 13.3261 0 12 0C10.6739 0 9.40215 0.526784 8.46447 1.46447C7.52678 2.40215 7 3.67392 7 5C7 8.171 11.457 12.664 11.647 12.854C11.7407 12.9475 11.8676 13 12 13ZM10.25 5C10.25 4.65388 10.3526 4.31554 10.5449 4.02775C10.7372 3.73997 11.0105 3.51566 11.3303 3.38321C11.6501 3.25076 12.0019 3.2161 12.3414 3.28363C12.6809 3.35115 12.9927 3.51782 13.2374 3.76256C13.4822 4.00731 13.6489 4.31913 13.7164 4.65859C13.7839 4.99806 13.7492 5.34993 13.6168 5.6697C13.4843 5.98947 13.26 6.26278 12.9722 6.45507C12.6845 6.64736 12.3461 6.75 12 6.75C11.536 6.74947 11.0912 6.56493 10.7631 6.23685C10.4351 5.90878 10.2505 5.46397 10.25 5Z" fill="#5626F4"/>
</g>
<defs>
<clipPath id="clip0_2743_38">
<rect width="24" height="24" fill="white"/>
</clipPath>
</defs>
</svg>
