<svg width="20" height="20" viewBox="0 0 20 20" fill="none" xmlns="http://www.w3.org/2000/svg">
<g clip-path="url(#clip0_6_1602)">
<path d="M19.9067 4.86C19.8788 4.84818 19.8481 4.84495 19.8184 4.85074C19.7887 4.85653 19.7614 4.87108 19.74 4.8925L11.6175 13.0133C11.1878 13.4428 10.6051 13.6841 9.9975 13.6841C9.38993 13.6841 8.80723 13.4428 8.3775 13.0133L0.258335 4.8925C0.237091 4.87088 0.209795 4.8562 0.180043 4.8504C0.150291 4.8446 0.119479 4.84795 0.0916683 4.86C0.0643406 4.87177 0.0410789 4.89132 0.0247795 4.91622C0.00848017 4.94111 -0.000136756 4.97025 1.6413e-06 5V15C1.6413e-06 15.442 0.175596 15.866 0.488157 16.1785C0.800718 16.4911 1.22464 16.6667 1.66667 16.6667H18.3333C18.7754 16.6667 19.1993 16.4911 19.5118 16.1785C19.8244 15.866 20 15.442 20 15V5C20.0001 4.97004 19.9913 4.94071 19.9747 4.91578C19.958 4.89084 19.9344 4.87143 19.9067 4.86Z" fill="#5626F4"/>
<path d="M9.26251 12.13C9.45808 12.325 9.72299 12.4345 9.99917 12.4345C10.2754 12.4345 10.5403 12.325 10.7358 12.13L18.8075 4.05834C18.8622 4.0037 18.9005 3.93493 18.9183 3.85973C18.9361 3.78453 18.9327 3.70586 18.9083 3.63251C18.8167 3.35834 18.5617 3.33334 18.3333 3.33334H1.66667C1.43751 3.33334 1.18084 3.35834 1.09084 3.63251C1.0665 3.70586 1.06305 3.78453 1.08085 3.85973C1.09866 3.93493 1.13703 4.0037 1.19167 4.05834L9.26251 12.13Z" fill="#5626F4"/>
</g>
<defs>
<clipPath id="clip0_6_1602">
<rect width="20" height="20" fill="white"/>
</clipPath>
</defs>
</svg>
