<svg width="20" height="20" viewBox="0 0 20 20" fill="none" xmlns="http://www.w3.org/2000/svg">
<g clip-path="url(#clip0_6_1579)">
<path d="M16.6075 6.6075C16.6075 4.85508 15.9114 3.17444 14.6722 1.93529C13.4331 0.696145 11.7524 0 10 0C8.2476 0 6.56696 0.696145 5.32781 1.93529C4.08866 3.17444 3.39252 4.85508 3.39252 6.6075C3.39252 9.69083 5.44918 13.3142 8.26085 14.4225C8.28984 14.4339 8.31591 14.4517 8.33712 14.4745C8.35834 14.4973 8.37417 14.5246 8.38345 14.5543C8.39272 14.5841 8.39521 14.6155 8.39072 14.6464C8.38623 14.6772 8.37489 14.7066 8.35752 14.7325L8.05752 15.1817C7.96184 15.3256 7.90698 15.4927 7.89876 15.6654C7.89053 15.838 7.92927 16.0096 8.01083 16.162C8.0924 16.3143 8.21374 16.4417 8.36195 16.5306C8.51017 16.6195 8.6797 16.6665 8.85252 16.6667H8.95835C9.0136 16.6667 9.06659 16.6886 9.10566 16.7277C9.14473 16.7668 9.16668 16.8197 9.16668 16.875V17.9167C9.14402 18.196 9.18236 18.4769 9.27904 18.74C9.37573 19.003 9.52844 19.2419 9.72661 19.4401C9.92478 19.6382 10.1637 19.791 10.4267 19.8876C10.6898 19.9843 10.9707 20.0227 11.25 20C11.471 20 11.683 19.9122 11.8393 19.7559C11.9956 19.5996 12.0833 19.3877 12.0833 19.1667C12.0833 18.9457 11.9956 18.7337 11.8393 18.5774C11.683 18.4211 11.471 18.3333 11.25 18.3333C10.8758 18.3333 10.8333 18.2908 10.8333 17.9167V16.875C10.8333 16.8197 10.8553 16.7668 10.8944 16.7277C10.9334 16.6886 10.9864 16.6667 11.0417 16.6667H11.1475C11.3203 16.6665 11.4899 16.6195 11.6381 16.5306C11.7863 16.4417 11.9076 16.3143 11.9892 16.162C12.0708 16.0096 12.1095 15.838 12.1013 15.6654C12.0931 15.4927 12.0382 15.3256 11.9425 15.1817L11.6425 14.7325C11.6251 14.7066 11.6138 14.6772 11.6093 14.6464C11.6048 14.6155 11.6073 14.5841 11.6166 14.5543C11.6259 14.5246 11.6417 14.4973 11.6629 14.4745C11.6841 14.4517 11.7102 14.4339 11.7392 14.4225C14.5508 13.3142 16.6075 9.6925 16.6075 6.6075ZM10 3.125C9.31988 3.12366 8.6525 3.30957 8.071 3.66235C7.48951 4.01512 7.01634 4.52116 6.70335 5.125C6.66639 5.19943 6.61496 5.26574 6.55207 5.32005C6.48918 5.37437 6.41608 5.41559 6.33707 5.44132C6.25805 5.46705 6.1747 5.47676 6.09188 5.46989C6.00907 5.46302 5.92846 5.4397 5.85476 5.4013C5.78107 5.3629 5.71577 5.31019 5.66269 5.24626C5.60961 5.18232 5.56981 5.10844 5.54562 5.02894C5.52144 4.94944 5.51335 4.86591 5.52183 4.78324C5.53031 4.70058 5.55519 4.62043 5.59502 4.5475C6.01317 3.74058 6.64539 3.06436 7.4224 2.59295C8.1994 2.12155 9.09119 1.87315 10 1.875C10.1658 1.875 10.3247 1.94085 10.442 2.05806C10.5592 2.17527 10.625 2.33424 10.625 2.5C10.625 2.66576 10.5592 2.82473 10.442 2.94194C10.3247 3.05915 10.1658 3.125 10 3.125Z" fill="#5626F4"/>
</g>
<defs>
<clipPath id="clip0_6_1579">
<rect width="20" height="20" fill="white"/>
</clipPath>
</defs>
</svg>
