<svg width="20" height="20" viewBox="0 0 20 20" fill="none" xmlns="http://www.w3.org/2000/svg">
<g clip-path="url(#clip0_6_1584)">
<path d="M18.8942 14.1742L16.8508 12.13C16.6332 11.912 16.3748 11.7391 16.0903 11.6211C15.8059 11.5031 15.5009 11.4424 15.1929 11.4424C14.8849 11.4424 14.58 11.5031 14.2955 11.6211C14.011 11.7391 13.7526 11.912 13.535 12.13L13.1183 12.5467C11.0648 10.826 9.1679 8.92665 7.44999 6.87083L7.86666 6.45416C8.30541 6.01412 8.55179 5.41807 8.55179 4.79666C8.55179 4.17526 8.30541 3.57921 7.86666 3.13916L5.81916 1.0975C5.37216 0.670467 4.77776 0.432175 4.15957 0.432175C3.54138 0.432175 2.94698 0.670467 2.49999 1.0975L1.38332 2.21916C0.846726 2.75962 0.512425 3.46825 0.436552 4.22606C0.36068 4.98387 0.547858 5.74472 0.966656 6.38083C4.2959 11.3974 8.59496 15.6973 13.6108 19.0275C14.2491 19.4425 15.0099 19.6273 15.7674 19.5516C16.5249 19.4758 17.234 19.144 17.7775 18.6108L18.8983 17.4892C19.1162 17.2717 19.2891 17.0134 19.4071 16.7291C19.5251 16.4448 19.5858 16.1399 19.5858 15.8321C19.5858 15.5242 19.5251 15.2194 19.4071 14.9351C19.2891 14.6507 19.1162 14.3924 18.8983 14.175L18.8942 14.1742Z" fill="#5626F4"/>
</g>
<defs>
<clipPath id="clip0_6_1584">
<rect width="20" height="20" fill="white"/>
</clipPath>
</defs>
</svg>
