<svg width="20" height="20" viewBox="0 0 20 20" fill="none" xmlns="http://www.w3.org/2000/svg">
<g clip-path="url(#clip0_6_1615)">
<path d="M9.99998 0C8.23248 0.00198509 6.53794 0.705002 5.28813 1.95481C4.03831 3.20463 3.3353 4.89917 3.33331 6.66667C3.33331 9.59167 7.49998 16.6875 9.28998 19.6033C9.36458 19.7246 9.46901 19.8247 9.5933 19.8942C9.71759 19.9636 9.8576 20 9.99998 20C10.1426 20.0007 10.2829 19.9644 10.4073 19.8948C10.5318 19.8251 10.636 19.7244 10.71 19.6025C12.5 16.6883 16.6666 9.595 16.6666 6.66667C16.6647 4.89917 15.9616 3.20463 14.7118 1.95481C13.462 0.705002 11.7675 0.00198509 9.99998 0V0ZM9.99998 9.58333C9.42312 9.58333 8.85921 9.41227 8.37957 9.09179C7.89992 8.7713 7.52609 8.31578 7.30533 7.78283C7.08457 7.24988 7.02682 6.66343 7.13936 6.09765C7.2519 5.53188 7.52968 5.01218 7.93758 4.60427C8.34549 4.19637 8.86519 3.91858 9.43097 3.80604C9.99674 3.6935 10.5832 3.75126 11.1161 3.97202C11.6491 4.19277 12.1046 4.56661 12.4251 5.04625C12.7456 5.5259 12.9166 6.0898 12.9166 6.66667C12.9166 7.44021 12.6094 8.18208 12.0624 8.72906C11.5154 9.27604 10.7735 9.58333 9.99998 9.58333Z" fill="#5626F4"/>
</g>
<defs>
<clipPath id="clip0_6_1615">
<rect width="20" height="20" fill="white"/>
</clipPath>
</defs>
</svg>
